<svg xmlns="http://www.w3.org/2000/svg" viewBox="0 0 201.4 142.4"><defs><style>.a,.d{fill:#fff;}.b{fill:#c00;}.c{fill:#cad3e5;}.d{stroke:#c00;stroke-linecap:round;stroke-miterlimit:10;stroke-width:2px;}</style></defs><title>Asset 2</title><path class="a" d="M155.9,141.4h-.3l-7.6-2.5a1.1,1.1,0,0,1-.7-1.2l1.2-5.7a3.2,3.2,0,0,0-1.3-3.1,26.3,26.3,0,0,1-5.4-4.6,3.3,3.3,0,0,0-2.3-1l-1,.2-5.4,2h-.4a1.3,1.3,0,0,1-.9-.6l-3.6-7.2a.9.9,0,0,1,.4-1.2l4.8-3.2a3.2,3.2,0,0,0,1.3-3.2,27.6,27.6,0,0,1-.6-7,2.9,2.9,0,0,0-1.7-2.9l-5.3-2.5a1.1,1.1,0,0,1-.5-1.2l2.5-7.6a1.1,1.1,0,0,1,1-.7h.2l5.7,1.2h.5a3.3,3.3,0,0,0,2.6-1.3,26.3,26.3,0,0,1,4.6-5.4,3.1,3.1,0,0,0,.8-3.3l-2-5.4a1,1,0,0,1,.5-1.3l7.2-3.6h.4a.9.9,0,0,1,.8.5l3.2,4.8a3.2,3.2,0,0,0,2.6,1.3h.6a27.6,27.6,0,0,1,5.7-.6H165a2.8,2.8,0,0,0,2.7-1.7l2.5-5.3a.9.9,0,0,1,.9-.5h.3l7.6,2.5a1.1,1.1,0,0,1,.7,1.2L178.5,77a3.2,3.2,0,0,0,1.3,3.1,26.3,26.3,0,0,1,5.4,4.6,3.3,3.3,0,0,0,2.3,1l1-.2,5.4-2h.4a1.2,1.2,0,0,1,.9.5l3.6,7.2a.9.9,0,0,1-.4,1.2l-4.8,3.2a3.2,3.2,0,0,0-1.3,3.2,27.6,27.6,0,0,1,.6,7,2.9,2.9,0,0,0,1.7,2.9l5.3,2.5a1.1,1.1,0,0,1,.5,1.2l-2.5,7.6a1.1,1.1,0,0,1-1,.7h-.2l-5.7-1.2h-.5a3.3,3.3,0,0,0-2.6,1.3,26.3,26.3,0,0,1-4.6,5.4,3.1,3.1,0,0,0-.8,3.3l2,5.4a1,1,0,0,1-.5,1.3l-7.2,3.6h-.4a.9.9,0,0,1-.8-.5l-3.2-4.8a3.2,3.2,0,0,0-2.6-1.3h-.6a26.9,26.9,0,0,1-5.7.6H162a2.8,2.8,0,0,0-2.7,1.7l-2.5,5.3A.9.9,0,0,1,155.9,141.4Z"/><path class="b" d="M171.1,68.6h0m0,0,7.6,2.5-1.2,5.7a4.1,4.1,0,0,0,1.8,4.1,36.7,36.7,0,0,1,5.2,4.4,3.7,3.7,0,0,0,3,1.4,3.1,3.1,0,0,0,1.3-.3l5.5-2,3.6,7.2-4.8,3.2a4.1,4.1,0,0,0-1.8,4.2,25.7,25.7,0,0,1,.6,6.8,3.8,3.8,0,0,0,2.3,3.8l5.2,2.5-2.5,7.6-5.7-1.2h-.7a3.9,3.9,0,0,0-3.4,1.8,31.7,31.7,0,0,1-4.5,5.2,3.9,3.9,0,0,0-1,4.3l2,5.5-7.2,3.6-3.2-4.8a3.9,3.9,0,0,0-3.4-1.8H169a25.1,25.1,0,0,1-5.5.6H162a4,4,0,0,0-3.6,2.3l-2.5,5.2-7.6-2.5,1.2-5.7a4.1,4.1,0,0,0-1.8-4.1,36.7,36.7,0,0,1-5.2-4.4,3.7,3.7,0,0,0-3-1.4,3.1,3.1,0,0,0-1.3.3l-5.5,2-3.6-7.2,4.8-3.2a4.1,4.1,0,0,0,1.8-4.2,25.7,25.7,0,0,1-.6-6.8,3.8,3.8,0,0,0-2.3-3.8l-5.2-2.5,2.5-7.6,5.7,1.2h.7a3.9,3.9,0,0,0,3.4-1.8,31.7,31.7,0,0,1,4.5-5.2,3.9,3.9,0,0,0,1-4.3l-1.9-5.5,7.1-3.6,3.2,4.8a3.9,3.9,0,0,0,3.4,1.8h.8a25.1,25.1,0,0,1,5.5-.6H165a4,4,0,0,0,3.6-2.3l2.5-5.2m0-2a1.9,1.9,0,0,0-1.8,1.1L166.8,73a1.9,1.9,0,0,1-1.8,1.1h-1.5a28.8,28.8,0,0,0-5.9.6h-.4a2,2,0,0,1-1.7-.9L152.3,69a2,2,0,0,0-1.7-.9l-.9.2L142.5,72a1.8,1.8,0,0,0-.9,2.4l2,5.5a2.1,2.1,0,0,1-.6,2.2,31.6,31.6,0,0,0-4.8,5.5,2,2,0,0,1-1.7.9h-.3l-5.7-1.2h-.4a1.8,1.8,0,0,0-1.9,1.4l-2.5,7.6a1.9,1.9,0,0,0,1,2.4l5.3,2.5a1.9,1.9,0,0,1,1.1,1.9,29.6,29.6,0,0,0,.6,7.3,2,2,0,0,1-.9,2.1l-4.8,3.2a2.2,2.2,0,0,0-.7,2.6l3.7,7.2a1.9,1.9,0,0,0,1.7,1h.7l5.5-2h.6a2.4,2.4,0,0,1,1.6.7,31.6,31.6,0,0,0,5.5,4.8,1.8,1.8,0,0,1,.9,2l-1.2,5.7a2,2,0,0,0,1.4,2.3l7.6,2.5h.6a1.9,1.9,0,0,0,1.8-1.1l2.5-5.3a1.9,1.9,0,0,1,1.8-1.1h1.5a28.8,28.8,0,0,0,5.9-.6h.4a2,2,0,0,1,1.7.9l3.2,4.8a2,2,0,0,0,1.7.9l.9-.2,7.2-3.7a1.8,1.8,0,0,0,.9-2.4l-2-5.5a2.1,2.1,0,0,1,.6-2.2,31.6,31.6,0,0,0,4.8-5.5,2,2,0,0,1,1.7-.9h.3l5.7,1.2h.4a1.8,1.8,0,0,0,1.9-1.4l2.5-7.6a1.9,1.9,0,0,0-1-2.4l-5.3-2.5a1.9,1.9,0,0,1-1.1-1.9,29.6,29.6,0,0,0-.6-7.3,2,2,0,0,1,.9-2.1l4.8-3.2a2.2,2.2,0,0,0,.7-2.6L196,83.5a1.9,1.9,0,0,0-1.7-1h-.7l-5.5,2h-.6a2.4,2.4,0,0,1-1.6-.7,31.6,31.6,0,0,0-5.5-4.8,1.8,1.8,0,0,1-.9-2l1.2-5.7a2,2,0,0,0-1.4-2.3l-7.6-2.5Z"/><path class="c" d="M163.5,121.7a16.8,16.8,0,0,1-5.4-.8,17.2,17.2,0,0,1,5.4-33.6,16.8,16.8,0,0,1,5.4.8,17.2,17.2,0,0,1-5.4,33.6Z"/><path class="b" d="M163.5,86.3v2a15.1,15.1,0,0,1,5.1.8,16.2,16.2,0,0,1-5.1,31.6,15.1,15.1,0,0,1-5.1-.8,16.2,16.2,0,0,1-10.3-20.5,16.2,16.2,0,0,1,15.4-11.1v-2m0,0a18.2,18.2,0,0,0-5.7,35.5,18.8,18.8,0,0,0,5.7.9,18.2,18.2,0,0,0,5.7-35.5,18.8,18.8,0,0,0-5.7-.9Z"/><path class="a" d="M59.2,132a2,2,0,0,1-2-1.8l-1.3-10.6a4,4,0,0,0-2.9-3.4,49.1,49.1,0,0,1-12.1-5,3.6,3.6,0,0,0-2-.6,4.5,4.5,0,0,0-2.5.9L28,118.2a2.5,2.5,0,0,1-1.2.4,1.7,1.7,0,0,1-1.4-.6L15,107.6a2,2,0,0,1-.2-2.6l6.7-8.4a4.1,4.1,0,0,0,.3-4.5,49.1,49.1,0,0,1-5-12.1,4,4,0,0,0-3.4-2.9L2.8,75.8a2,2,0,0,1-1.8-2V59.2a2,2,0,0,1,1.8-2l10.6-1.3A4,4,0,0,0,16.8,53a49.1,49.1,0,0,1,5-12.1,4.1,4.1,0,0,0-.3-4.5L14.8,28a2,2,0,0,1,.2-2.6L25.4,15a1.7,1.7,0,0,1,1.4-.6,2.5,2.5,0,0,1,1.2.4l8.4,6.7a4.5,4.5,0,0,0,2.5.9,3.6,3.6,0,0,0,2-.6,49.1,49.1,0,0,1,12.1-5,4,4,0,0,0,2.9-3.4L57.2,2.8a2,2,0,0,1,2-1.8H73.8a2,2,0,0,1,2,1.8l1.3,10.6A4,4,0,0,0,80,16.8a49.1,49.1,0,0,1,12.1,5,3.6,3.6,0,0,0,2,.6,4.5,4.5,0,0,0,2.5-.9l8.4-6.7a2.5,2.5,0,0,1,1.2-.4,1.7,1.7,0,0,1,1.4.6L118,25.4a2,2,0,0,1,.2,2.6l-6.7,8.4a4.1,4.1,0,0,0-.3,4.5,49.1,49.1,0,0,1,5,12.1,4,4,0,0,0,3.4,2.9l10.6,1.3a2,2,0,0,1,1.8,2V73.8a2,2,0,0,1-1.8,2l-10.6,1.3a4,4,0,0,0-3.4,2.9,49.1,49.1,0,0,1-5,12.1,4.1,4.1,0,0,0,.3,4.5l6.7,8.4a2,2,0,0,1-.2,2.6L107.6,118a1.7,1.7,0,0,1-1.4.6h0a2.5,2.5,0,0,1-1.2-.4l-8.4-6.7a4.5,4.5,0,0,0-2.5-.9,3.6,3.6,0,0,0-2,.6,49.1,49.1,0,0,1-12.1,5,4,4,0,0,0-2.9,3.4l-1.3,10.6a2,2,0,0,1-2,1.8Z"/><path class="b" d="M73.8,2a1,1,0,0,1,1,.9l1.3,10.6a4.9,4.9,0,0,0,3.6,4.3,45.9,45.9,0,0,1,11.9,4.9,5.5,5.5,0,0,0,2.5.7,5.1,5.1,0,0,0,3.1-1.1l8.4-6.7.6-.2a.9.9,0,0,1,.7.3l10.4,10.4a.9.9,0,0,1,.1,1.3l-6.7,8.4a5.2,5.2,0,0,0-.4,5.6,45.9,45.9,0,0,1,4.9,11.9,4.9,4.9,0,0,0,4.3,3.6l10.6,1.3a1,1,0,0,1,.9,1V73.8a1,1,0,0,1-.9,1l-10.6,1.3a4.9,4.9,0,0,0-4.3,3.6,45.9,45.9,0,0,1-4.9,11.9,5.2,5.2,0,0,0,.4,5.6l6.7,8.4a.9.9,0,0,1-.1,1.3l-10.4,10.4a.9.9,0,0,1-.7.3l-.6-.2-8.4-6.7a5.1,5.1,0,0,0-3.1-1.1,5.5,5.5,0,0,0-2.5.7,45.9,45.9,0,0,1-11.9,4.9,4.9,4.9,0,0,0-3.6,4.3l-1.3,10.6a1,1,0,0,1-1,.9H59.2a1,1,0,0,1-1-.9l-1.3-10.6a4.9,4.9,0,0,0-3.6-4.3,45.9,45.9,0,0,1-11.9-4.9,5.5,5.5,0,0,0-2.5-.7,5.1,5.1,0,0,0-3.1,1.1l-8.4,6.7-.6.2a.9.9,0,0,1-.7-.3L15.7,106.9a.9.9,0,0,1-.1-1.3l6.7-8.4a5.2,5.2,0,0,0,.4-5.6,45.9,45.9,0,0,1-4.9-11.9,4.9,4.9,0,0,0-4.3-3.6L2.9,74.8a1,1,0,0,1-.9-1V59.2a1,1,0,0,1,.9-1l10.6-1.3a4.9,4.9,0,0,0,4.3-3.6,45.9,45.9,0,0,1,4.9-11.9,5.2,5.2,0,0,0-.4-5.6l-6.7-8.4a.9.9,0,0,1,.1-1.3L26.1,15.7a.9.9,0,0,1,.7-.3l.6.2,8.4,6.7a5.1,5.1,0,0,0,3.1,1.1,5.5,5.5,0,0,0,2.5-.7,45.9,45.9,0,0,1,11.9-4.9,4.9,4.9,0,0,0,3.6-4.3L58.2,2.9a1,1,0,0,1,1-.9H73.8m0-2H59.2a3,3,0,0,0-3,2.7L54.9,13.3a2.9,2.9,0,0,1-2.1,2.5A52.4,52.4,0,0,0,40.4,21a4.2,4.2,0,0,1-1.5.4,3.1,3.1,0,0,1-1.8-.7l-8.5-6.6a2.6,2.6,0,0,0-1.8-.7,2.7,2.7,0,0,0-2.1.9L14.3,24.7a2.8,2.8,0,0,0-.2,3.9l6.6,8.5a2.9,2.9,0,0,1,.3,3.3,52.4,52.4,0,0,0-5.2,12.4,2.9,2.9,0,0,1-2.5,2.1L2.7,56.2a3,3,0,0,0-2.7,3V73.8a3,3,0,0,0,2.7,3l10.6,1.3a2.9,2.9,0,0,1,2.5,2.1A52.4,52.4,0,0,0,21,92.6a2.9,2.9,0,0,1-.3,3.3l-6.6,8.5a2.8,2.8,0,0,0,.2,3.9l10.4,10.4a2.7,2.7,0,0,0,2.1.9,2.6,2.6,0,0,0,1.8-.7l8.5-6.6a3.1,3.1,0,0,1,1.8-.7,4.2,4.2,0,0,1,1.5.4,52.4,52.4,0,0,0,12.4,5.2,2.9,2.9,0,0,1,2.1,2.5l1.3,10.6a3,3,0,0,0,3,2.7H73.8a3,3,0,0,0,3-2.7l1.3-10.6a2.9,2.9,0,0,1,2.1-2.5A52.4,52.4,0,0,0,92.6,112a4.2,4.2,0,0,1,1.5-.4,3.1,3.1,0,0,1,1.8.7l8.5,6.6a2.6,2.6,0,0,0,1.8.7,2.7,2.7,0,0,0,2.1-.9l10.4-10.4a2.8,2.8,0,0,0,.2-3.9l-6.6-8.5a2.9,2.9,0,0,1-.3-3.3,52.4,52.4,0,0,0,5.2-12.4,2.9,2.9,0,0,1,2.5-2.1l10.6-1.3a3,3,0,0,0,2.7-3V59.2a3,3,0,0,0-2.7-3l-10.6-1.3a2.9,2.9,0,0,1-2.5-2.1A52.4,52.4,0,0,0,112,40.4a2.9,2.9,0,0,1,.3-3.3l6.6-8.5a2.8,2.8,0,0,0-.2-3.9L108.3,14.3a2.7,2.7,0,0,0-2.1-.9,2.6,2.6,0,0,0-1.8.7l-8.5,6.6a3.1,3.1,0,0,1-1.8.7,4.2,4.2,0,0,1-1.5-.4,52.4,52.4,0,0,0-12.4-5.2,2.9,2.9,0,0,1-2.1-2.5L76.8,2.7a3,3,0,0,0-3-2.7Z"/><circle class="c" cx="66.5" cy="66.5" r="30.5"/><path class="b" d="M66.5,37A29.5,29.5,0,1,1,37,66.5,29.5,29.5,0,0,1,66.5,37m0-2A31.5,31.5,0,1,0,98,66.5,31.5,31.5,0,0,0,66.5,35Z"/><path class="d" d="M26,66.2a40.7,40.7,0,0,1,21.4-36"/><path class="d" d="M29.5,82.9a40.6,40.6,0,0,1-3-9.9"/></svg>