<svg xmlns="http://www.w3.org/2000/svg" viewBox="0 0 162.5 154.6"><defs><style>.a,.c{fill:#fff;}.b{fill:#c00;}.c{stroke:#c00;stroke-linecap:round;stroke-miterlimit:10;stroke-width:2px;}</style></defs><title>Asset 3</title><circle class="a" cx="26.5" cy="134.6" r="8"/><path class="b" d="M26.5,127.6a7,7,0,1,1-7,7,7,7,0,0,1,7-7m0-2a9,9,0,1,0,9,9,9,9,0,0,0-9-9Z"/><path class="a" d="M26.5,153.6H25.4A19,19,0,0,1,7.5,134.9,18.7,18.7,0,0,1,15,119.5a1.7,1.7,0,0,0,.5-1.2v-71l-.5-.2A25.5,25.5,0,0,1,15,1.6V21.5l11.5,5.4L38,21.5V1.6a25.5,25.5,0,0,1,0,45.5l-.5.2v71a1.7,1.7,0,0,0,.5,1.2,18.7,18.7,0,0,1,7.5,15.1,19.1,19.1,0,0,1-19,19Z"/><path class="b" d="M39,3.3a24.5,24.5,0,0,1-1.4,42.9l-1.1.5v71.6a2.5,2.5,0,0,0,.9,2,17.8,17.8,0,0,1,7.1,14.3,18.1,18.1,0,0,1-18,18h-1a18,18,0,0,1-17-17.6,17.8,17.8,0,0,1,7.1-14.6,2.5,2.5,0,0,0,.9-2V46.7l-1.1-.5A24.5,24.5,0,0,1,14,3.3V22.1l1.1.5,10.5,5,.9.4.9-.4,10.5-5,1.1-.5V3.3M37,0V20.8l-10.5,5L16,20.8V0a26.5,26.5,0,0,0-1.5,48v70.3c0,.2,0,.3-.2.4a20,20,0,0,0,11.1,35.8h1.1a20,20,0,0,0,12.2-35.9c-.2-.1-.2-.2-.2-.4V48A26.5,26.5,0,0,0,37,0Z"/><line class="c" x1="22" y1="54.6" x2="22" y2="100.3"/><line class="c" x1="22" y1="107.3" x2="22" y2="114.6"/><rect class="a" x="133.5" y="1.1" width="28" height="152" rx="4"/><path class="b" d="M157.5,2.1a3,3,0,0,1,3,3v144a3.1,3.1,0,0,1-3,3h-20a3,3,0,0,1-3-3V5.1a2.9,2.9,0,0,1,3-3h20m0-2h-20a5,5,0,0,0-5,5v144a5,5,0,0,0,5,5h20a5.1,5.1,0,0,0,5-5V5.1a5,5,0,0,0-5-5Z"/><rect class="a" x="149.5" y="8.1" width="11" height="2" rx="1"/><path class="b" d="M159.5,8.1h-9a1,1,0,0,0-1,1,1.1,1.1,0,0,0,1,1h9a1,1,0,0,0,1-1,.9.9,0,0,0-1-1Z"/><rect class="a" x="149.5" y="21.5" width="11" height="2" rx="1"/><path class="b" d="M159.5,21.5h-9a1,1,0,0,0-1,1,1.1,1.1,0,0,0,1,1h9a1,1,0,0,0,1-1,.9.9,0,0,0-1-1Z"/><rect class="a" x="149.5" y="34.9" width="11" height="2" rx="1"/><path class="b" d="M159.5,34.9h-9a1,1,0,0,0-1,1,1.1,1.1,0,0,0,1,1h9a1,1,0,0,0,1-1,.9.9,0,0,0-1-1Z"/><rect class="a" x="149.5" y="88.5" width="11" height="2" rx="1"/><path class="b" d="M159.5,88.5h-9a1,1,0,0,0-1,1,1.1,1.1,0,0,0,1,1h9a1,1,0,0,0,1-1,.9.9,0,0,0-1-1Z"/><rect class="a" x="149.5" y="61.7" width="11" height="2" rx="1"/><path class="b" d="M159.5,61.7h-9a1,1,0,0,0-1,1,1.1,1.1,0,0,0,1,1h9a1,1,0,0,0,1-1,.9.9,0,0,0-1-1Z"/><rect class="a" x="149.5" y="48.3" width="11" height="2" rx="1"/><path class="b" d="M159.5,48.3h-9a1,1,0,0,0-1,1,1.1,1.1,0,0,0,1,1h9a1,1,0,0,0,1-1,.9.9,0,0,0-1-1Z"/><rect class="a" x="149.5" y="75.1" width="11" height="2" rx="1"/><path class="b" d="M159.5,75.1h-9a1,1,0,0,0-1,1,1.1,1.1,0,0,0,1,1h9a1,1,0,0,0,1-1,.9.9,0,0,0-1-1Z"/><rect class="a" x="149.5" y="101.9" width="11" height="2" rx="1"/><path class="b" d="M159.5,101.9h-9a1,1,0,0,0-1,1,1.1,1.1,0,0,0,1,1h9a1,1,0,0,0,1-1,.9.9,0,0,0-1-1Z"/><rect class="a" x="149.5" y="142.1" width="11" height="2" rx="1"/><path class="b" d="M159.5,142.1h-9a.9.9,0,0,0-1,1,1,1,0,0,0,1,1h9a1.1,1.1,0,0,0,1-1,1,1,0,0,0-1-1Z"/><rect class="a" x="149.5" y="115.3" width="11" height="2" rx="1"/><path class="b" d="M159.5,115.3h-9a1,1,0,0,0-1,1,1.1,1.1,0,0,0,1,1h9a1,1,0,0,0,1-1,.9.9,0,0,0-1-1Z"/><rect class="a" x="149.5" y="128.7" width="11" height="2" rx="1"/><path class="b" d="M159.5,128.7h-9a1,1,0,0,0-1,1,1.1,1.1,0,0,0,1,1h9a1,1,0,0,0,1-1,.9.9,0,0,0-1-1Z"/><line class="c" x1="140" y1="8.6" x2="140" y2="123.3"/><line class="c" x1="140" y1="132.3" x2="140" y2="145.6"/><polygon class="a" points="82.2 85.3 82.2 19.5 80.1 15.2 84.1 1.3 91.3 1.3 95.4 15.2 93.2 19.5 93.2 85.3 82.2 85.3"/><path class="b" d="M90.6,2.3l3.7,12.8-1.9,3.8-.2.4v65h-9v-65l-.2-.4-1.9-3.8L84.9,2.3h5.7m1.5-2H83.4L79,15.3l2.2,4.5V86.3h13V19.8l2.3-4.5L92.1.3Z"/><line class="c" x1="80" y1="113.3" x2="80" y2="133.3"/><path class="a" d="M78,153.3a4,4,0,0,1-4-4V107.9a6.5,6.5,0,0,0,0-12.2V85.3h27.5V95.7a6.5,6.5,0,0,0,0,12.2v41.4a4,4,0,0,1-4,4Z"/><path class="b" d="M100.5,86.3V95a7.5,7.5,0,0,0,0,13.6v40.7a3.1,3.1,0,0,1-3,3H78a3,3,0,0,1-3-3V108.6A7.6,7.6,0,0,0,75,95V86.3h25.5m2-2H73V96.6c2.4.2,4.2,2.4,4.2,5.2s-1.8,5.1-4.2,5.2v42.3a5,5,0,0,0,5,5H97.5a5.1,5.1,0,0,0,5-5V107c-2.4-.1-4.3-2.4-4.3-5.2a5,5,0,0,1,4.3-5.2V84.3Z"/><line class="c" x1="80" y1="140.3" x2="80" y2="147.8"/></svg>