<?xml version="1.0" encoding="utf-8"?>
<!-- Generator: Adobe Illustrator 24.0.1, SVG Export Plug-In . SVG Version: 6.00 Build 0)  -->
<svg version="1.1" id="Layer_1" xmlns="http://www.w3.org/2000/svg" xmlns:xlink="http://www.w3.org/1999/xlink" x="0px" y="0px"
	 viewBox="0 0 125.6 44" style="enable-background:new 0 0 125.6 44;" xml:space="preserve">
<style type="text/css">
	.st0{enable-background:new    ;}
	.st1{fill:#FFFFFF;}
	.st2{fill:#CC0000;}
</style>
<title>logo</title>
<g>
	<g class="st0">
		<path class="st1" d="M50.8,13c0-2.6,1.2-5.4,4.6-5.4s4.6,2.8,4.6,5.4s-1.2,5.4-4.6,5.4S50.8,15.6,50.8,13z M58.3,13
			c0-1.8-0.8-3.9-3-3.9s-3,2.2-3,3.9c0,1.8,0.8,3.9,3,3.9S58.3,14.7,58.3,13z"/>
		<path class="st1" d="M62.2,7.8h4.2c2.6,0,3.5,1.6,3.5,3.2c0,1.5-1,3.2-3.5,3.2h-2.7v4.1h-1.6V7.8z M68.3,11c0-0.7-0.4-1.7-1.8-1.7
			h-2.7v3.4h2.7C67.9,12.7,68.3,11.8,68.3,11z"/>
	</g>
	<g class="st0">
		<path class="st1" d="M71.8,7.8h6.5v1.5h-5v2.9h3.2v1.5h-3.2v3.2h5.3v1.5h-6.8V7.8z"/>
	</g>
	<g class="st0">
		<path class="st1" d="M80.8,7.8h4.4c2.6,0,3.4,1.5,3.4,3.1c0,1.2-0.7,2.5-2.3,3l2.2,4.4h-1.8L84.7,14h-2.3v4.3h-1.6V7.8z
			 M85.3,12.5c1.3,0,1.7-0.8,1.7-1.6c0-0.7-0.4-1.6-1.7-1.6h-2.9v3.2H85.3z"/>
	</g>
	<g class="st0">
		<path class="st1" d="M96.2,15.9H92l-0.9,2.4h-1.6l3.8-10.5h1.6l3.8,10.5h-1.6L96.2,15.9z M94.5,10.9c-0.1-0.3-0.3-0.8-0.4-1.2
			c-0.1,0.4-0.2,0.8-0.4,1.2l-1.3,3.6h3.3L94.5,10.9z"/>
	</g>
	<g class="st0">
		<path class="st1" d="M101.8,18.3h-1.6v-9h-3V7.8h7.5v1.5h-3V18.3z"/>
	</g>
	<g class="st0">
		<path class="st1" d="M105.3,13c0-2.6,1.2-5.4,4.6-5.4s4.6,2.8,4.6,5.4s-1.2,5.4-4.6,5.4S105.3,15.6,105.3,13z M112.8,13
			c0-1.8-0.8-3.9-3-3.9c-2.2,0-3,2.2-3,3.9c0,1.8,0.8,3.9,3,3.9C112,17,112.8,14.7,112.8,13z"/>
	</g>
	<g class="st0">
		<path class="st1" d="M116.8,7.8h4.4c2.6,0,3.4,1.5,3.4,3.1c0,1.2-0.7,2.5-2.3,3l2.2,4.4h-1.8l-2.1-4.3h-2.3v4.3h-1.6V7.8z
			 M121.2,12.5c1.3,0,1.7-0.8,1.7-1.6c0-0.7-0.4-1.6-1.7-1.6h-2.9v3.2H121.2z"/>
	</g>
	<g class="st0">
		<path class="st1" d="M50.7,32.5l2.2-0.8c0.6,1.3,1.7,2.2,3.1,2.2s2.4-0.7,2.4-1.9c0-1.3-1.4-1.8-3-2.4c-2-0.7-4.2-1.5-4.2-4.1
			c0-2,1.7-3.8,4.6-3.8c2.4,0,4,1.3,4.5,3l-2.2,0.7c-0.4-0.8-1.2-1.4-2.5-1.4c-1.3,0-2,0.5-2,1.5c0,1,1.2,1.4,2.7,1.9
			c2,0.7,4.6,1.6,4.6,4.6c0,2.7-2.2,4.2-4.9,4.2C53.4,36.1,51.5,34.7,50.7,32.5z"/>
		<path class="st1" d="M68,21.9c4.9,0,6.7,3.5,6.7,7c0,3.2-1.7,7-6.8,7h-4.2v-14H68z M72.3,28.9c0-2.4-1.1-4.7-3.8-4.7h-2.4v9.5h2.2
			C71.3,33.6,72.3,31.1,72.3,28.9z"/>
		<path class="st1" d="M82.6,28.9L80.1,32v3.9h-2.4v-14h2.4v6.7l5.3-6.7h2.8l-4,5l5,9h-2.8L82.6,28.9z"/>
	</g>
</g>
<g>
	<circle class="st2" cx="22.5" cy="21.9" r="21.8"/>
	<path class="st1" d="M27.3,3.2L9.5,26l12.9,0.1c0.4,0,0.8,0.4,0.6,0.9l-3.4,13c-0.1,0.4,0.4,0.6,0.6,0.3l15.1-19.9
		c0.1-0.2,0-0.5-0.3-0.5H22.9c-0.6,0-1-0.6-0.8-1.1l5.3-14.5L27.3,3.2z"/>
</g>
</svg>
