<!-- Generator: Adobe Illustrator 24.0.1, SVG Export Plug-In  -->
<svg version="1.1" xmlns="http://www.w3.org/2000/svg" xmlns:xlink="http://www.w3.org/1999/xlink" x="0px" y="0px" width="22px"
	 height="22px" viewBox="0 0 22 22" style="enable-background:new 0 0 22 22;" xml:space="preserve">
<style type="text/css">
	.st0{fill:#007299;}
</style>
<defs>
</defs>
<path class="st0" d="M19.5,8l-7.3-7.6c-0.4-0.4-1.1-0.4-1.5,0L9.3,1.8c-0.4,0.4-0.4,1.1,0,1.6l5.2,5.5H1.1C0.5,8.9,0,9.3,0,10V12
	c0,0.6,0.5,1.1,1.1,1.1h13.5l-5.2,5.5c-0.4,0.4-0.4,1.1,0,1.6l1.4,1.5c0.4,0.4,1.1,0.4,1.5,0l9.4-9.9c0.4-0.4,0.4-1.1,0-1.6L19.5,8z
	"/>
</svg>
