<svg xmlns="http://www.w3.org/2000/svg" viewBox="0 0 1593 408"><defs><style>.a{fill:#c00;}.b{fill:#fff;}</style></defs><title>Artboard 6</title><circle class="a" cx="9.2" cy="426.8" r="203.2"/><path class="b" d="M54.3,253.3l-166,212.8,120.5,1a6.4,6.4,0,0,1,6.1,8l-32,121a3.2,3.2,0,0,0,5.7,2.8l141-185.7a2.8,2.8,0,0,0-2.3-4.5H12.8a7.4,7.4,0,0,1-7-10L55.3,264Z"/><circle class="a" cx="9.2" cy="19.2" r="203.2"/><path class="b" d="M54.3-154.2l-166,212.8,120.5,1a6.3,6.3,0,0,1,6.1,8l-32,121a3.2,3.2,0,0,0,5.7,2.8L129.6,5.7a2.9,2.9,0,0,0-2.3-4.6H12.8a7.4,7.4,0,0,1-7-10L55.3-143.6Z"/><circle class="a" cx="415.2" cy="426.8" r="203.2"/><path class="b" d="M460.3,253.3l-166,212.8,120.5,1a6.4,6.4,0,0,1,6.1,8l-32,121a3.2,3.2,0,0,0,5.7,2.8l141-185.7a2.8,2.8,0,0,0-2.3-4.5H418.8a7.4,7.4,0,0,1-7-10L461.3,264Z"/><circle class="a" cx="415.2" cy="19.2" r="203.2"/><path class="b" d="M460.3-154.2,294.3,58.6l120.5,1a6.3,6.3,0,0,1,6.1,8l-32,121a3.2,3.2,0,0,0,5.7,2.8L535.6,5.7a2.9,2.9,0,0,0-2.3-4.6H418.8a7.4,7.4,0,0,1-7-10l49.5-134.7Z"/><circle class="a" cx="822.2" cy="426.8" r="203.2"/><path class="b" d="M867.3,253.3l-166,212.8,120.5,1a6.4,6.4,0,0,1,6.1,8l-32,121a3.2,3.2,0,0,0,5.7,2.8l141-185.7a2.8,2.8,0,0,0-2.3-4.5H825.8a7.4,7.4,0,0,1-7-10L868.3,264Z"/><circle class="a" cx="822.2" cy="19.2" r="203.2"/><path class="b" d="M867.3-154.2,701.3,58.6l120.5,1a6.3,6.3,0,0,1,6.1,8l-32,121a3.2,3.2,0,0,0,5.7,2.8L942.6,5.7a2.9,2.9,0,0,0-2.3-4.6H825.8a7.4,7.4,0,0,1-7-10l49.5-134.7Z"/><circle class="a" cx="1228.2" cy="426.8" r="203.2"/><path class="b" d="M1273.3,253.3l-166,212.8,120.5,1a6.4,6.4,0,0,1,6.1,8l-32,121a3.2,3.2,0,0,0,5.7,2.8l141-185.7a2.8,2.8,0,0,0-2.3-4.5H1231.8a7.4,7.4,0,0,1-7-10L1274.3,264Z"/><circle class="a" cx="1228.2" cy="19.2" r="203.2"/><path class="b" d="M1273.3-154.2l-166,212.8,120.5,1a6.3,6.3,0,0,1,6.1,8l-32,121a3.2,3.2,0,0,0,5.7,2.8l141-185.7a2.9,2.9,0,0,0-2.3-4.6H1231.8a7.4,7.4,0,0,1-7-10l49.5-134.7Z"/><circle class="a" cx="1634.2" cy="426.8" r="203.2"/><path class="b" d="M1679.3,253.3l-166,212.8,120.5,1a6.4,6.4,0,0,1,6.1,8l-32,121a3.2,3.2,0,0,0,5.7,2.8l141-185.7a2.8,2.8,0,0,0-2.3-4.5H1637.8a7.4,7.4,0,0,1-7-10L1680.3,264Z"/><circle class="a" cx="1634.2" cy="19.2" r="203.2"/><path class="b" d="M1679.3-154.2l-166,212.8,120.5,1a6.3,6.3,0,0,1,6.1,8l-32,121a3.2,3.2,0,0,0,5.7,2.8l141-185.7a2.9,2.9,0,0,0-2.3-4.6H1637.8a7.4,7.4,0,0,1-7-10l49.5-134.7Z"/></svg>