<svg xmlns="http://www.w3.org/2000/svg" viewBox="0 0 196.6 134.9"><defs><style>.a,.b,.d{fill:#fff;}.a,.d{stroke:#c00;stroke-linecap:round;stroke-miterlimit:10;}.a{stroke-width:2px;}.c{fill:#c00;}.d{stroke-width:3px;}</style></defs><title>Asset 1</title><path class="a" d="M107,87.9v32.9a12.5,12.5,0,0,1-12.6,12.6H13.6A12.5,12.5,0,0,1,1,120.8V40A12.6,12.6,0,0,1,13.6,27.4H65.5"/><path class="b" d="M106.3,87a43,43,0,1,1,43.1-43A43.1,43.1,0,0,1,106.3,87Z"/><path class="c" d="M106.3,2a42,42,0,1,1-42,42,42.1,42.1,0,0,1,42-42m0-2a44,44,0,1,0,44.1,44A44,44,0,0,0,106.3,0Z"/><rect class="b" x="154.7" y="63" width="16.3" height="76.35" transform="translate(-23.8 144.8) rotate(-45)"/><path class="c" d="M141.6,69.8l52.6,52.6-10.1,10.1L131.5,79.9l10.1-10.1m0-2.8L128.7,79.9l54.6,54.7a1.1,1.1,0,0,0,.8.3,1.1,1.1,0,0,0,.7-.3l11.5-11.5a1,1,0,0,0,0-1.4L141.6,67Z"/><path class="d" d="M72.6,17.9h32.3a12.6,12.6,0,0,1,12.6,12.6V84.8"/><line class="a" x1="9.5" y1="42" x2="9.5" y2="100.5"/><line class="a" x1="9.5" y1="108.5" x2="9.5" y2="121"/><path class="a" d="M75,57.8A35.1,35.1,0,0,1,72.2,44a34.3,34.3,0,0,1,5.4-18.5"/><path class="a" d="M87.3,72.4a34.6,34.6,0,0,1-9.2-9.1"/></svg>