<?xml version="1.0" encoding="utf-8"?>
<!-- Generator: Adobe Illustrator 23.0.4, SVG Export Plug-In . SVG Version: 6.00 Build 0)  -->
<svg version="1.1" id="Layer_1" xmlns="http://www.w3.org/2000/svg" xmlns:xlink="http://www.w3.org/1999/xlink" x="0px" y="0px"
	 width="23.9px" height="109.2px" viewBox="0 0 23.9 109.2" style="enable-background:new 0 0 23.9 109.2;" xml:space="preserve">
<style type="text/css">
	.st0{fill:none;stroke:#FFFFFF;stroke-width:2;}
	.st1{fill:none;stroke:#FFFFFF;stroke-width:4;}
	.st2{fill:none;stroke:#282828;stroke-width:2;}
	.st3{fill:none;stroke:#0088CC;stroke-width:2;}
	.st4{fill-rule:evenodd;clip-rule:evenodd;fill:#FFFFFF;}
</style>
<g id="Blog">
	<g id="Individual-blog-post--visual-design-pass" transform="translate(-544.000000, -27.000000)">
		<g id="Group" transform="translate(410.000000, 18.000000)">
			<polyline id="Path" class="st0" points="134.7,78.3 140.2,83.7 145,78.3 			"/>
		</g>
	</g>
</g>
<g>
	<line class="st1" x1="0.6" y1="53.5" x2="23.9" y2="53.5"/>
	<line class="st1" x1="0.6" y1="44.2" x2="23.9" y2="44.2"/>
	<line class="st1" x1="0.6" y1="34.8" x2="23.9" y2="34.8"/>
</g>
<g>
	<line class="st1" x1="3.3" y1="16.6" x2="21.3" y2="1.7"/>
	<line class="st1" x1="21.1" y1="16.8" x2="3.5" y2="1.5"/>
</g>
<g id="Blog_1_">
	<g id="Individual-blog-post--visual-design-pass_1_" transform="translate(-544.000000, -27.000000)">
		<g id="Group_1_" transform="translate(410.000000, 18.000000)">
			<polyline id="Path_1_" class="st2" points="135.1,98.5 139.9,92 135.1,86.4 			"/>
		</g>
	</g>
</g>
<g id="Blog_2_">
	<g id="Individual-blog-post--visual-design-pass_2_" transform="translate(-544.000000, -27.000000)">
		<g id="Group_2_" transform="translate(410.000000, 18.000000)">
			<polyline id="Path_2_" class="st3" points="150.1,98.5 154.9,92 150.1,86.4 			"/>
		</g>
	</g>
</g>
<path class="st4" d="M8.1,93.8c-4.4,0-7.9,3.5-7.9,7.9c0,3.5,2.3,6.5,5.4,7.5c0.4,0.1,0.5-0.2,0.5-0.4c0-0.2,0-0.7,0-1.3
	c-2.2,0.5-2.7-1.1-2.7-1.1c-0.4-0.9-0.9-1.2-0.9-1.2c-0.7-0.5,0.1-0.5,0.1-0.5c0.8,0.1,1.2,0.8,1.2,0.8c0.7,1.2,1.9,0.9,2.3,0.7
	c0.1-0.5,0.3-0.9,0.5-1.1C4.9,105,3,104.3,3,101.3c0-0.9,0.3-1.6,0.8-2.1c-0.1-0.2-0.4-1,0.1-2.1c0,0,0.7-0.2,2.2,0.8
	c0.6-0.2,1.3-0.3,2-0.3c0.7,0,1.3,0.1,2,0.3c1.5-1,2.2-0.8,2.2-0.8c0.4,1.1,0.2,1.9,0.1,2.1c0.5,0.6,0.8,1.3,0.8,2.1
	c0,3-1.8,3.7-3.6,3.9c0.3,0.2,0.5,0.7,0.5,1.5c0,1.1,0,1.9,0,2.2c0,0.2,0.1,0.5,0.5,0.4c3.1-1,5.4-4,5.4-7.5
	C16,97.3,12.4,93.8,8.1,93.8z"/>
</svg>
