<svg id="Layer_1" data-name="Layer 1" xmlns="http://www.w3.org/2000/svg" viewBox="0 0 294.3 127"><defs><style>.cls-1{fill:#c00;}.cls-2{fill:#fff;}</style></defs><title>operator_logo_sdk_color</title><g id="Page-1"><path id="Fill-1" class="cls-1" d="M66.8,21A42.5,42.5,0,1,1,24.3,63.5,42.51,42.51,0,0,1,66.8,21"/><path id="Fill-5" class="cls-2" d="M41.83,70,76.38,26c.77,1.52,0,2.38-.3,3.29-3.14,8.61-6.23,17.28-9.52,25.84-.81,2.17-.46,2.68,1.82,2.68H90.62c.6,0,1.41-.3,1.77.36s-.41,1.16-.76,1.67L63.31,97.33c-.45.61-.9,1.52-1.72,1.07s-.3-1.37,0-2.13c2.18-8,4.26-15.91,6.53-23.86.57-1.87,0-2.28-1.71-2.23H45.28Z"/></g><path d="M123,49.79c0-5.19,2.46-10.86,9.21-10.86s9.21,5.67,9.21,10.86S139,60.65,132.24,60.65,123,55,123,49.79Zm14.7,0c0-3.45-1.41-7.41-5.49-7.41s-5.49,4.17-5.49,7.41c0,3.42,1.41,7.41,5.49,7.41S137.73,53,137.73,49.79Z"/><path d="M145.8,39.29h8.73c5.22,0,7.05,3.3,7.05,6.51,0,3-2,6.54-7.05,6.54H149.4v7.95h-3.6Zm12.06,6.51a2.9,2.9,0,0,0-3.15-3.09H149.4v6.21h5.31A2.94,2.94,0,0,0,157.86,45.8Z"/><path d="M164.88,39.29h13.68v3.39H168.48v5.07h6.21v3.39h-6.21V56.9h10.74v3.39H164.88Z"/><path d="M183.27,39.29h9.3c5.22,0,6.9,3.09,6.9,6.39a6.15,6.15,0,0,1-4.32,6l4.2,8.61h-4l-4.05-8.22h-4.38v8.22h-3.6Zm9.36,9.36c2.34,0,3.12-1.44,3.12-3s-.66-3-3.12-3h-5.76v5.94Z"/><path d="M215.55,55.7h-8.31l-1.65,4.59h-3.81l7.83-21h3.57l7.8,21H217.2Zm-3.45-9.54a17.63,17.63,0,0,1-.69-2.13c-.18.63-.48,1.53-.69,2.13l-2.34,6.3h6Z"/><path d="M230,60.29h-3.6V42.74h-6V39.29H236v3.45h-6Z"/><path d="M238,49.79c0-5.19,2.46-10.86,9.21-10.86s9.21,5.67,9.21,10.86S254,60.65,247.2,60.65,238,55,238,49.79Zm14.7,0c0-3.45-1.41-7.41-5.49-7.41s-5.49,4.17-5.49,7.41c0,3.42,1.41,7.41,5.49,7.41S252.69,53,252.69,49.79Z"/><path d="M260.76,39.29h9.3c5.22,0,6.9,3.09,6.9,6.39a6.15,6.15,0,0,1-4.32,6l4.2,8.61h-4l-4.05-8.22h-4.38v8.22h-3.6Zm9.36,9.36c2.34,0,3.12-1.44,3.12-3s-.66-3-3.12-3h-5.76v5.94Z"/><path d="M123,90.53l4.44-1.64a6.86,6.86,0,0,0,6.28,4.32c2.88,0,4.79-1.32,4.79-3.88s-2.83-3.68-6-4.76c-4-1.36-8.48-2.92-8.48-8.24,0-4.08,3.32-7.51,9.2-7.51,4.87,0,7.95,2.55,8.95,6l-4.31,1.44a5,5,0,0,0-5-2.88c-2.52,0-4,1.08-4,3s2.44,2.88,5.36,3.84c4.08,1.44,9.11,3.2,9.11,9.12,0,5.4-4.32,8.44-9.83,8.44C128.43,97.77,124.55,95,123,90.53Z"/><path d="M157.67,69.3c9.79,0,13.47,7,13.47,14,0,6.4-3.36,14-13.63,14H149v-28Zm8.51,14c0-4.72-2.24-9.47-7.55-9.47h-4.8v19h4.36C164.14,92.77,166.18,87.69,166.18,83.29Z"/><path d="M186.83,83.25l-5.08,6.2v7.84H177v-28h4.8V82.73L192.42,69.3H198l-8,9.91,9.92,18.08h-5.6Z"/></svg>